<svg xmlns="http://www.w3.org/2000/svg" width="1280" height="560" viewBox="0 0 1280 560" role="img" aria-label="Terminal preview">
  <defs>
    <linearGradient id="page" x1="0" y1="0" x2="1" y2="1">
      <stop offset="0%" stop-color="#050816"/>
      <stop offset="100%" stop-color="#0b1225"/>
    </linearGradient>
    <linearGradient id="panel" x1="0" y1="0" x2="1" y2="1">
      <stop offset="0%" stop-color="#0b132d"/>
      <stop offset="100%" stop-color="#0a1a36"/>
    </linearGradient>
    <linearGradient id="titlebar" x1="0" y1="0" x2="1" y2="0">
      <stop offset="0%" stop-color="#111a3a"/>
      <stop offset="100%" stop-color="#0f2042"/>
    </linearGradient>
    <filter id="shadow" x="-20%" y="-20%" width="140%" height="140%">
      <feDropShadow dx="0" dy="18" stdDeviation="18" flood-color="#000000" flood-opacity="0.45"/>
    </filter>
  </defs>

  <rect x="0" y="0" width="1280" height="560" fill="url(#page)"/>

  <rect x="80" y="70" width="1120" height="420" rx="18" fill="url(#panel)" filter="url(#shadow)"/>
  <rect x="80" y="70" width="1120" height="48" rx="18" fill="url(#titlebar)"/>
  <rect x="80" y="100" width="1120" height="390" fill="url(#panel)"/>

  <circle cx="112" cy="94" r="8" fill="#ff5f56"/>
  <circle cx="138" cy="94" r="8" fill="#ffbd2e"/>
  <circle cx="164" cy="94" r="8" fill="#27c93f"/>
  <text x="640" y="99" fill="#9fb4dd" font-size="19" font-family="ui-monospace, SFMono-Regular, Menlo, Monaco, Consolas, monospace" text-anchor="middle">prompt-ai-guide terminal preview</text>

  <g font-family="ui-monospace, SFMono-Regular, Menlo, Monaco, Consolas, monospace" font-size="34">
    <text x="110" y="170" fill="#2dd4bf">$</text>
    <text x="140" y="170" fill="#e5edf9">fetch + analyze https://github.com/MooseQuest/prompt-ai-guide</text>

    <text x="110" y="230" fill="#67e8f9">&gt; reading repository structure...</text>
    <text x="110" y="276" fill="#67e8f9">&gt; creating prompt.ai/development_log.md</text>
    <text x="110" y="322" fill="#67e8f9">&gt; creating prompt.ai/git_workflow.md</text>
    <text x="110" y="368" fill="#67e8f9">&gt; creating .cursor/rules/prompt-ai.mdc</text>
    <text x="110" y="414" fill="#67e8f9">&gt; updating README.md + CONTRIBUTING.md</text>

    <text x="110" y="462" fill="#4ade80">AI&gt;</text>
    <text x="180" y="462" fill="#f8fafc">workflow installed. all files created.</text>
  </g>
</svg>
